<?xml version="1.0" encoding="UTF-8" standalone="no"?>
<!-- Created with Inkscape (http://www.inkscape.org/) -->

<svg
   width="209.30222mm"
   height="52.275734mm"
   viewBox="0 0 209.30222 52.275734"
   version="1.1"
   id="svg1"
   xml:space="preserve"
   inkscape:version="1.3.2 (091e20e, 2023-11-25, custom)"
   sodipodi:docname="vct-logo.svg"
   xmlns:inkscape="http://www.inkscape.org/namespaces/inkscape"
   xmlns:sodipodi="http://sodipodi.sourceforge.net/DTD/sodipodi-0.dtd"
   xmlns="http://www.w3.org/2000/svg"
   xmlns:svg="http://www.w3.org/2000/svg"><sodipodi:namedview
     id="namedview1"
     pagecolor="#ffffff"
     bordercolor="#000000"
     borderopacity="0.25"
     inkscape:showpageshadow="2"
     inkscape:pageopacity="0.0"
     inkscape:pagecheckerboard="0"
     inkscape:deskcolor="#d1d1d1"
     inkscape:document-units="mm"
     inkscape:zoom="2.8284272"
     inkscape:cx="198.87378"
     inkscape:cy="115.78873"
     inkscape:window-width="1920"
     inkscape:window-height="1009"
     inkscape:window-x="-8"
     inkscape:window-y="-8"
     inkscape:window-maximized="1"
     inkscape:current-layer="layer2"
     showguides="false" /><defs
     id="defs1" /><g
     inkscape:groupmode="layer"
     id="layer2"
     inkscape:label="Layer 2"><g
       id="g1"
       transform="matrix(2.7586882,0,0,2.7586882,-0.03197179,-0.14379268)"
       style="fill:#ffffff"><path
         d="m 4.5571305,0.05216357 a 0.52916666,0.52916666 0 0 1 0.145521,0.10583 L 9.5789221,6.2434139 a 7.1437499,7.1437499 0 0 1 0.5635619,0.74612 c -0.7937499,0.0212 -1.6033749,0 -2.4024159,0 a 1.2752917,1.2752917 0 0 1 -0.370417,-0.0265 1.4948958,1.4948958 0 0 1 -0.240771,-0.26458 C 6.2954431,5.6401239 5.4540685,4.6082435 4.6206305,3.5578435 c -0.0926,-0.0979 -0.06615,-0.23812 -0.07408,-0.35983 0.01058,-1.03717 -0.0079,-2.09285 0.01058,-3.14588993 z"
         style="fill:#ffffff;stroke-width:0.264583"
         id="path1" /><path
         d="m 9.5101301,4.3304735 c 1.1535839,-1.42346 2.2859999,-2.86279 3.4395839,-4.27830993 a 1.7409583,1.7409583 0 0 1 0.03704,0.52916 c 0,0.92074993 0,1.85208993 0,2.76224993 0.01852,0.20373 -0.164041,0.33338 -0.264583,0.48419 a 10.300229,10.300229 0 0 1 -0.677333,0.81227 c -0.486834,0.0529 -0.986896,0 -1.479021,0.0212 -0.428625,0 -0.8598959,0.0159 -1.2885209,-0.0159 a 3.3311041,3.3311041 0 0 1 0.232833,-0.31485 z"
         style="fill:#ffffff;stroke-width:0.264583"
         id="path2" /><path
         d="m 0.01158949,4.6744335 c 0.79374995,-0.0344 1.60866601,0 2.41300001,-0.0159 0.161395,0 0.370416,-0.0344 0.468312,0.12965 q 1.455208,1.8176804 2.910417,3.6406604 a 0.396875,0.396875 0 0 1 0.100541,0.30163 c 0,0.55562 0,1.1086 0,1.6642301 a 0.36247916,0.36247916 0 0 1 -0.105833,0.22225 l -2.878667,3.59833 a 0.3095625,0.3095625 0 0 1 -0.298979,0.15611 c -0.867833,0 -1.73302106,0 -2.60085401,0 a 1.7832916,1.7832916 0 0 1 0.264583,-0.39423 Q 1.9986095,11.841974 3.7236935,9.7041439 a 0.396875,0.396875 0 0 0 0.105833,-0.1958 2.079625,2.079625 0 0 0 -0.264583,-0.36777 L 0.36877649,5.1506635 a 4.3497499,4.3497499 0 0 1 -0.357187,-0.47625 z"
         style="fill:#ffffff;stroke-width:0.264583"
         id="path3" /><path
         d="m 14.743588,4.6929535 a 1.0027708,1.0027708 0 0 1 0.373063,-0.0344 c 0.79375,0 1.613958,-0.0185 2.418292,0.0159 a 4.8207083,4.8207083 0 0 1 -0.410105,0.54504 q -1.666875,2.0849104 -3.336395,4.1698304 a 0.15875,0.15875 0 0 0 -0.01852,0.23019 c 1.127125,1.4155201 2.259541,2.8231001 3.389312,4.2333301 a 2.6749375,2.6749375 0 0 1 0.365125,0.51065 c -0.867833,0 -1.735666,0 -2.6035,0 a 0.26458333,0.26458333 0 0 1 -0.264583,-0.12965 l -2.926292,-3.67506 c -0.09789,-0.10054 -0.07673,-0.24606 -0.08202,-0.37306 0,-0.5106501 0,-1.0239401 0,-1.5345901 a 0.32014583,0.32014583 0 0 1 0.0926,-0.23018 l 2.706687,-3.3972504 a 2.8151666,2.8151666 0 0 1 0.296333,-0.33073 z"
         style="fill:#ffffff;stroke-width:0.264583"
         id="path4" /><path
         d="m 7.2056091,12.220344 c 0.07408,-0.0926 0.156105,-0.20902 0.291042,-0.19843 q 1.280583,0 2.5585209,0 c 0.129646,0 0.209021,0.10847 0.283104,0.19579 q 1.227667,1.53458 2.457979,3.06387 c 0.09525,0.12965 0.240771,0.26459 0.216958,0.43127 q 0,1.28323 0,2.56382 a 4.5878749,4.5878749 0 0 1 -0.02381,0.70908 3.8443958,3.8443958 0 0 1 -0.410104,-0.47361 l -3.4633959,-4.30212 a 2.9315833,2.9315833 0 0 0 -0.293687,-0.34131 c -0.08731,-0.0397 -0.142875,0.045 -0.1905,0.10054 l -3.6221456,4.52702 c -0.137584,0.16933 -0.264584,0.3466 -0.420688,0.50535 a 0.81491666,0.81491666 0 0 1 -0.03969,-0.26458 c 0,-1.02658 0,-2.05317 0,-3.0771 a 0.31485416,0.31485416 0 0 1 0.08996,-0.2249 q 1.283229,-1.61396 2.5664566,-3.21469 z"
         style="fill:#ffffff;stroke-width:0.264583"
         id="path5" /></g><g
       id="g2"
       style="fill:#000000"
       transform="matrix(1.263292,0,0,1.263292,15.89543,-1.9780156)"><path
         d="m 87.471653,11.800039 h 2.262742 l 0.0072,6.938376 c 0,0.08922 0.07242,0.162625 0.162625,0.162625 l 1.295662,-9.68e-4 c 0.09015,0 0.162625,-0.07242 0.162625,-0.162625 l -0.0074,-6.937417 h 2.837904 c 0.08342,0 0.130983,-0.09738 0.07769,-0.162624 L 93.29905,10.42041 c -0.08108,-0.102181 -0.204363,-0.161162 -0.334372,-0.161659 h -5.493045 c -0.09015,0 -0.162624,0.07244 -0.162624,0.162625 v 1.216998 c 0,0.08825 0.07241,0.161659 0.162624,0.161659 m -54.615259,6.939345 6.638084,-8.317994 c 0.05229,-0.06524 0.0052,-0.162624 -0.07819,-0.162624 h -1.659761 c -0.130006,0 -0.253761,0.05997 -0.334829,0.161659 l -4.709213,5.900312 v -5.900304 c 0,-0.09018 -0.07244,-0.162625 -0.162133,-0.162625 h -1.296148 c -0.08971,0 -0.162134,0.07242 -0.162134,0.162625 v 8.317991 c 0,0.09018 0.07242,0.162625 0.162134,0.162625 h 1.267846 c 0.130006,0 0.252804,-0.05948 0.334349,-0.161659 m 4.67995,0 2.28337,-2.860931 2.283371,2.860931 c 0.08107,0.102182 0.204832,0.161659 0.335309,0.161659 h 1.267367 c 0.09018,0 0.162621,-0.07244 0.162621,-0.162625 v -8.317991 c 0,-0.08922 -0.07242,-0.162625 -0.162621,-0.162625 h -1.063014 c -0.260475,0 -0.507041,0.118486 -0.67014,0.322359 l -6.509524,8.157294 c -0.05229,0.06522 -0.0052,0.162625 0.07819,0.162625 h 1.659763 c 0.130963,9.68e-4 0.25376,-0.05851 0.335309,-0.160693 m 4.71065,-6.077316 v 3.832306 l -1.529283,-1.91592 z m 37.063061,6.075384 -6.637605,-8.317991 c -0.08105,-0.101685 -0.204336,-0.16119 -0.334372,-0.161659 h -1.268782 c -0.08969,0 -0.162128,0.07242 -0.162128,0.162625 v 8.317994 c 0,0.09018 0.07244,0.162624 0.162128,0.162624 h 1.267844 c 0.130017,0 0.253799,-0.05948 0.334375,-0.161659 l 2.283369,-2.86093 2.282892,2.86093 c 0.08155,0.102182 0.204363,0.161659 0.334835,0.161659 h 1.65976 c 0.08351,0 0.130017,-0.09738 0.07766,-0.16359 m -5.254612,-4.159001 -1.529761,1.91688 v -3.83328 z M 55.788927,10.042418 c -2.502111,0 -4.530282,2.031048 -4.530282,4.536999 0,2.505951 2.028171,4.537479 4.530282,4.537479 2.502593,0 4.530764,-2.031528 4.530764,-4.537479 9.69e-4,-2.505951 -2.028171,-4.536999 -4.530764,-4.536999 m 0,7.532242 c -1.607471,0 -2.909856,-1.341238 -2.909856,-2.995243 0,-1.654005 1.302385,-2.996203 2.909856,-2.996203 1.607956,0 2.910341,1.341238 2.910341,2.996203 9.69e-4,1.654005 -1.302385,2.995243 -2.910341,2.995243 m 28.774307,-7.154236 v 5.900305 l -4.709216,-5.901265 c -0.08155,-0.101685 -0.204336,-0.16119 -0.334836,-0.161659 h -1.269286 c -0.08919,0 -0.162128,0.07242 -0.162128,0.162625 v 4.008371 c 0,0.09738 0.03275,0.191867 0.09404,0.268144 l 1.348436,1.689984 c 0.05948,0.07435 0.178929,0.03214 0.178929,-0.06235 V 12.83621 l 4.710173,5.903185 c 0.08108,0.102182 0.204363,0.161659 0.334372,0.161659 h 1.267849 c 0.08969,0 0.162128,-0.07244 0.162128,-0.162625 v -8.317994 c 0,-0.08922 -0.07244,-0.162624 -0.162128,-0.162624 h -1.29615 c -0.08969,0 -0.162128,0.07341 -0.162128,0.162624 m -15.834918,1.802712 v -1.802712 c 0,-0.09018 -0.07244,-0.162624 -0.162128,-0.162624 H 61.93295 c -0.08968,0 -0.162128,0.07241 -0.162128,0.162624 v 8.317991 c 0,0.09018 0.07244,0.162625 0.162128,0.162625 h 1.29615 c 0.08968,0 0.162129,-0.07244 0.162129,-0.162625 v -6.937427 h 3.716703 l -2.508826,3.14491 c -0.04654,0.05851 -0.04654,0.142955 0,0.202901 l 2.8662,3.591512 c 0.08155,0.102182 0.204336,0.161659 0.334836,0.161659 h 1.659765 c 0.08348,0 0.130017,-0.09738 0.07774,-0.162625 l -2.945882,-3.69081 2.04208,-2.555362 c 0.06044,-0.07818 0.09451,-0.172694 0.09451,-0.270076 m -22.752163,6.677927 h 3.846232 c 0.130017,0 0.253772,-0.05948 0.334348,-0.16166 l 0.971392,-1.217958 c 0.05228,-0.06524 0.0058,-0.162624 -0.07771,-0.162624 H 47.43448 v -6.938377 c 0,-0.09018 -0.07244,-0.162625 -0.162139,-0.162625 h -1.296147 c -0.08971,0 -0.162134,0.07242 -0.162134,0.162625 v 8.317994 c 0,0.08922 0.0734,0.162625 0.162134,0.162625"
         id="path1-4"
         style="stroke-width:0.122803;fill:#ffffff" /><path
         style="font-size:18.7643px;font-family:'Dharma Gothic E';-inkscape-font-specification:'Dharma Gothic E';fill:#ffffff;stroke-width:1.56616"
         d="m 34.73232,24.86902 c 0,1.48238 -0.412815,2.082838 -1.538673,3.35881 -1.576201,1.74508 -2.101601,2.53318 -2.101601,4.54096 v 2.101602 h 6.042104 v -2.289245 h -3.602745 c 0.07506,-1.238443 0.5254,-1.838901 1.557437,-3.002288 1.557437,-1.763844 2.082837,-2.551944 2.082837,-4.559724 V 24.34362 c 0,-2.101602 -0.487872,-2.702059 -2.40183,-2.702059 h -1.013273 c -1.932722,0 -2.420594,0.600457 -2.420594,2.702059 v 2.064073 h 2.308009 v -1.763844 c 0,-0.506636 0.05629,-0.694279 0.469107,-0.694279 h 0.150114 c 0.431579,0 0.469108,0.187643 0.469108,0.694279 z m 9.044379,-0.5254 c 0,-2.101602 -0.506636,-2.702059 -2.40183,-2.702059 h -1.163387 c -1.913958,0 -2.40183,0.600457 -2.40183,2.702059 v 7.918534 c 0,2.101602 0.487872,2.702059 2.40183,2.702059 h 1.163387 c 1.895194,0 2.40183,-0.600457 2.40183,-2.702059 z m -3.527688,0.300229 c 0,-0.506636 0.05629,-0.694279 0.469107,-0.694279 h 0.150115 c 0.431578,0 0.469107,0.187643 0.469107,0.694279 v 7.318076 c 0,0.506637 -0.03753,0.69428 -0.469107,0.69428 h -0.150115 c -0.412814,0 -0.469107,-0.187643 -0.469107,-0.69428 z m 7.805945,0.225171 c 0,1.48238 -0.412815,2.082838 -1.538673,3.35881 -1.576201,1.74508 -2.101601,2.53318 -2.101601,4.54096 v 2.101602 h 6.042104 V 32.581147 H 46.85404 c 0.07506,-1.238443 0.525401,-1.838901 1.557437,-3.002288 1.557437,-1.763844 2.082838,-2.551944 2.082838,-4.559724 V 24.34362 c 0,-2.101602 -0.487872,-2.702059 -2.401831,-2.702059 h -1.013272 c -1.932723,0 -2.420595,0.600457 -2.420595,2.702059 v 2.064073 h 2.308009 v -1.763844 c 0,-0.506636 0.05629,-0.694279 0.469108,-0.694279 h 0.150114 c 0.431579,0 0.469108,0.187643 0.469108,0.694279 z m 5.516706,-3.133638 -2.96476,9.232036 v 1.838901 h 3.114874 v 2.064073 h 2.439359 V 32.806319 H 56.968 V 30.76101 h -0.806865 v -9.025628 z m -0.900687,9.025628 0.412815,-1.501144 c 0.375286,-1.369794 0.544164,-2.383066 0.825629,-3.734095 -0.112586,1.369794 -0.187643,2.608237 -0.187643,3.734095 v 1.501144 z m 9.907532,-5.89199 c 0,-0.562929 0.05629,-0.750572 0.506636,-0.750572 h 0.187643 c 0.450344,0 0.506636,0.187643 0.506636,0.750572 v 1.913959 h 2.458124 v -2.232952 c 0,-2.251716 -0.525401,-2.908466 -2.589474,-2.908466 h -1.088329 c -2.064073,0 -2.608238,0.65675 -2.608238,2.908466 v 7.50572 c 0,2.251716 0.544165,2.908466 2.608238,2.908466 h 1.088329 c 2.064073,0 2.589474,-0.65675 2.589474,-2.908466 v -2.795881 h -2.458124 v 2.476888 c 0,0.562929 -0.05629,0.750572 -0.506636,0.750572 h -0.187643 c -0.450343,0 -0.506636,-0.187643 -0.506636,-0.750572 z m 7.167978,10.001372 v -5.591761 h 1.18215 v 5.591761 h 2.627002 v -13.13501 h -2.627002 v 5.066361 h -1.18215 v -5.066361 h -2.627002 v 13.13501 z m 8.612822,0 h 2.627002 l -1.61373,-13.13501 h -3.62151 l -1.632494,13.13501 h 2.364302 L 76.67052,33.162841 H 78.1529 Z M 77.402328,23.668105 c 0.112585,2.082837 0.281464,4.40961 0.506636,7.167962 h -1.013272 c 0.225171,-2.758352 0.39405,-5.085125 0.506636,-7.167962 z m 10.320366,5.385354 c 0.112585,-0.750572 0.243935,-1.970251 0.375286,-2.945995 -0.01877,0.938215 -0.03753,2.064073 -0.03753,2.945995 v 5.816933 h 2.570709 v -13.13501 h -3.771624 l -0.637986,5.085125 c -0.09382,0.694279 -0.131351,1.463616 -0.187643,2.232952 -0.05629,-0.769336 -0.09382,-1.538673 -0.187643,-2.232952 l -0.637987,-5.085125 h -3.659038 v 13.13501 h 2.289245 v -5.816933 c 0,-0.881922 -0.01876,-1.970251 -0.03753,-2.889702 0.112586,0.956979 0.243936,2.120366 0.356522,2.889702 l 0.844393,5.816933 h 1.857666 z m 3.865451,5.816933 h 2.627002 v -4.484668 h 1.182151 c 2.064073,0 2.589473,-0.675514 2.589473,-2.92723 v -2.814645 c 0,-2.251716 -0.5254,-2.908467 -2.589473,-2.908467 h -3.809153 z m 2.627002,-6.961555 V 24.21227 h 0.65675 c 0.431579,0 0.487872,0.187643 0.487872,0.750572 v 2.195423 c 0,0.562929 -0.05629,0.750572 -0.487872,0.750572 z m 4.484662,6.961555 h 2.627001 v -13.13501 h -2.627001 z m 3.508911,-2.814645 c 0,2.251716 0.54417,2.908466 2.60824,2.908466 h 1.23845 c 2.06407,0 2.60823,-0.65675 2.60823,-2.908466 v -7.50572 c 0,-2.251716 -0.54416,-2.908466 -2.60823,-2.908466 h -1.23845 c -2.06407,0 -2.60824,0.65675 -2.60824,2.908466 z m 3.82792,-0.318993 c 0,0.562929 -0.0563,0.750572 -0.50663,0.750572 h -0.18765 c -0.45034,0 -0.50663,-0.187643 -0.50663,-0.750572 V 24.86902 c 0,-0.562929 0.0563,-0.750572 0.50663,-0.750572 h 0.18765 c 0.45034,0 0.50663,0.187643 0.50663,0.750572 z m 7.18672,3.133638 h 2.8897 v -13.13501 h -2.27048 v 4.447139 c 0,0.900687 0.0375,1.763844 0.0563,2.702059 -0.11259,-0.91945 -0.20641,-1.801372 -0.37529,-2.702059 l -0.84439,-4.447139 h -3.15241 v 13.13501 h 2.25172 v -5.085125 c 0,-0.919451 -0.0375,-1.763844 -0.0563,-2.702059 0.11258,0.91945 0.24393,1.782608 0.43158,2.702059 z m 7.28053,-3.133638 c 0,0.562929 -0.0563,0.750572 -0.48787,0.750572 h -0.16888 c -0.43158,0 -0.48787,-0.187643 -0.48787,-0.750572 v -1.651258 h -2.45812 v 1.970251 c 0,2.251716 0.54416,2.908466 2.58947,2.908466 h 1.0508 c 2.04531,0 2.58947,-0.65675 2.58947,-2.908466 v -0.806865 c 0,-1.932723 -0.63798,-2.66453 -1.98901,-3.790388 -1.21968,-1.013273 -1.6325,-1.369794 -1.6325,-2.401831 v -0.243936 c 0,-0.506636 0.0563,-0.694279 0.50664,-0.694279 h 0.15011 c 0.43158,0 0.50664,0.187643 0.50664,0.750572 v 1.275973 h 2.45812 v -1.594966 c 0,-2.251716 -0.5254,-2.908466 -2.58947,-2.908466 h -1.03204 c -2.06407,0 -2.60823,0.65675 -2.60823,2.908466 v 0.525401 c 0,1.932722 0.63798,2.66453 1.97025,3.790388 1.23844,1.013272 1.63249,1.35103 1.63249,2.40183 z m 9.56976,3.133638 V 24.193505 h 1.38856 v -2.458123 h -5.40412 v 2.458123 h 1.38856 v 10.676887 z m 1.80138,-2.814645 c 0,2.251716 0.54416,2.908466 2.60824,2.908466 h 1.23844 c 2.06407,0 2.60824,-0.65675 2.60824,-2.908466 v -7.50572 c 0,-2.251716 -0.54417,-2.908466 -2.60824,-2.908466 h -1.23844 c -2.06408,0 -2.60824,0.65675 -2.60824,2.908466 z m 3.82792,-0.318993 c 0,0.562929 -0.0563,0.750572 -0.50664,0.750572 h -0.18764 c -0.45034,0 -0.50664,-0.187643 -0.50664,-0.750572 V 24.86902 c 0,-0.562929 0.0563,-0.750572 0.50664,-0.750572 h 0.18764 c 0.45034,0 0.50664,0.187643 0.50664,0.750572 z m 6.09839,-10.001372 h -2.627 v 10.320365 c 0,2.251716 0.54417,2.908466 2.60824,2.908466 h 1.08833 c 2.06407,0 2.58947,-0.65675 2.58947,-2.908466 V 21.735382 h -2.47689 v 10.001372 c 0,0.562929 -0.0563,0.750572 -0.48787,0.750572 h -0.2064 c -0.43158,0 -0.48788,-0.187643 -0.48788,-0.750572 z m 10.95835,9.307093 c 0,-1.594966 -0.2627,-2.401831 -1.16338,-2.720824 0.90068,-0.318993 1.16338,-1.088329 1.16338,-2.683294 v -0.994508 c 0,-2.251716 -0.5254,-2.908467 -2.60823,-2.908467 h -3.82792 v 13.13501 h 2.627 v -5.329061 h 0.48787 c 0.56293,0 0.69428,0.356522 0.69428,0.975743 v 2.308009 c 0,0.825629 0.0375,1.61373 0.2627,2.045309 h 2.70206 c -0.2627,-0.656751 -0.33776,-1.463616 -0.33776,-2.308009 z m -2.627,-4.728604 c 0,0.562929 -0.0563,0.750572 -0.48787,0.750572 h -0.69428 V 24.21227 h 0.69428 c 0.43158,0 0.48787,0.187643 0.48787,0.750572 z"
         id="text2"
         aria-label="2024 CHAMPIONS TOUR" /></g></g></svg>
