<?xml version="1.0" encoding="UTF-8" standalone="no"?>
<!-- Created with Inkscape (http://www.inkscape.org/) -->

<svg
   width="48.341469mm"
   height="52.275734mm"
   viewBox="0 0 48.341469 52.275734"
   version="1.1"
   id="svg1"
   inkscape:version="1.3.2 (091e20e, 2023-11-25, custom)"
   sodipodi:docname="vct-favicon.svg"
   inkscape:export-filename="vct-favicon.jpg"
   inkscape:export-xdpi="134.50977"
   inkscape:export-ydpi="134.50977"
   xmlns:inkscape="http://www.inkscape.org/namespaces/inkscape"
   xmlns:sodipodi="http://sodipodi.sourceforge.net/DTD/sodipodi-0.dtd"
   xmlns="http://www.w3.org/2000/svg"
   xmlns:svg="http://www.w3.org/2000/svg">
  <sodipodi:namedview
     id="namedview1"
     pagecolor="#ffffff"
     bordercolor="#000000"
     borderopacity="0.25"
     inkscape:showpageshadow="2"
     inkscape:pageopacity="0.0"
     inkscape:pagecheckerboard="0"
     inkscape:deskcolor="#d1d1d1"
     inkscape:document-units="mm"
     inkscape:zoom="4.0970529"
     inkscape:cx="130.70371"
     inkscape:cy="-12.081855"
     inkscape:window-width="1920"
     inkscape:window-height="1009"
     inkscape:window-x="-8"
     inkscape:window-y="-8"
     inkscape:window-maximized="1"
     inkscape:current-layer="layer1" />
  <defs
     id="defs1" />
  <g
     inkscape:label="Layer 1"
     inkscape:groupmode="layer"
     id="layer1"
     transform="translate(-67.204167,-78.052083)">
    <g
       id="g2"
       transform="matrix(2.7586882,0,0,2.7586882,67.172195,77.90829)"
       style="fill:#d40000">
      <path
         d="m 4.5571305,0.05216357 a 0.52916666,0.52916666 0 0 1 0.145521,0.10583 L 9.5789221,6.2434139 a 7.1437499,7.1437499 0 0 1 0.5635619,0.74612 c -0.7937499,0.0212 -1.6033749,0 -2.4024159,0 a 1.2752917,1.2752917 0 0 1 -0.370417,-0.0265 1.4948958,1.4948958 0 0 1 -0.240771,-0.26458 C 6.2954431,5.6401239 5.4540685,4.6082435 4.6206305,3.5578435 c -0.0926,-0.0979 -0.06615,-0.23812 -0.07408,-0.35983 0.01058,-1.03717 -0.0079,-2.09285 0.01058,-3.14588993 z"
         style="fill:#d40000;stroke-width:0.264583"
         id="path1" />
      <path
         d="m 9.5101301,4.3304735 c 1.1535839,-1.42346 2.2859999,-2.86279 3.4395839,-4.27830993 a 1.7409583,1.7409583 0 0 1 0.03704,0.52916 c 0,0.92074993 0,1.85208993 0,2.76224993 0.01852,0.20373 -0.164041,0.33338 -0.264583,0.48419 a 10.300229,10.300229 0 0 1 -0.677333,0.81227 c -0.486834,0.0529 -0.986896,0 -1.479021,0.0212 -0.428625,0 -0.8598959,0.0159 -1.2885209,-0.0159 a 3.3311041,3.3311041 0 0 1 0.232833,-0.31485 z"
         style="fill:#d40000;stroke-width:0.264583"
         id="path2" />
      <path
         d="m 0.01158949,4.6744335 c 0.79374995,-0.0344 1.60866601,0 2.41300001,-0.0159 0.161395,0 0.370416,-0.0344 0.468312,0.12965 q 1.455208,1.8176804 2.910417,3.6406604 a 0.396875,0.396875 0 0 1 0.100541,0.30163 c 0,0.55562 0,1.1086 0,1.6642301 a 0.36247916,0.36247916 0 0 1 -0.105833,0.22225 l -2.878667,3.59833 a 0.3095625,0.3095625 0 0 1 -0.298979,0.15611 c -0.867833,0 -1.73302106,0 -2.60085401,0 a 1.7832916,1.7832916 0 0 1 0.264583,-0.39423 Q 1.9986095,11.841974 3.7236935,9.7041439 a 0.396875,0.396875 0 0 0 0.105833,-0.1958 2.079625,2.079625 0 0 0 -0.264583,-0.36777 L 0.36877649,5.1506635 a 4.3497499,4.3497499 0 0 1 -0.357187,-0.47625 z"
         style="fill:#d40000;stroke-width:0.264583"
         id="path3" />
      <path
         d="m 14.743588,4.6929535 a 1.0027708,1.0027708 0 0 1 0.373063,-0.0344 c 0.79375,0 1.613958,-0.0185 2.418292,0.0159 a 4.8207083,4.8207083 0 0 1 -0.410105,0.54504 q -1.666875,2.0849104 -3.336395,4.1698304 a 0.15875,0.15875 0 0 0 -0.01852,0.23019 c 1.127125,1.4155201 2.259541,2.8231001 3.389312,4.2333301 a 2.6749375,2.6749375 0 0 1 0.365125,0.51065 c -0.867833,0 -1.735666,0 -2.6035,0 a 0.26458333,0.26458333 0 0 1 -0.264583,-0.12965 l -2.926292,-3.67506 c -0.09789,-0.10054 -0.07673,-0.24606 -0.08202,-0.37306 0,-0.5106501 0,-1.0239401 0,-1.5345901 a 0.32014583,0.32014583 0 0 1 0.0926,-0.23018 l 2.706687,-3.3972504 a 2.8151666,2.8151666 0 0 1 0.296333,-0.33073 z"
         style="fill:#d40000;stroke-width:0.264583"
         id="path4" />
      <path
         d="m 7.2056091,12.220344 c 0.07408,-0.0926 0.156105,-0.20902 0.291042,-0.19843 q 1.280583,0 2.5585209,0 c 0.129646,0 0.209021,0.10847 0.283104,0.19579 q 1.227667,1.53458 2.457979,3.06387 c 0.09525,0.12965 0.240771,0.26459 0.216958,0.43127 q 0,1.28323 0,2.56382 a 4.5878749,4.5878749 0 0 1 -0.02381,0.70908 3.8443958,3.8443958 0 0 1 -0.410104,-0.47361 l -3.4633959,-4.30212 a 2.9315833,2.9315833 0 0 0 -0.293687,-0.34131 c -0.08731,-0.0397 -0.142875,0.045 -0.1905,0.10054 l -3.6221456,4.52702 c -0.137584,0.16933 -0.264584,0.3466 -0.420688,0.50535 a 0.81491666,0.81491666 0 0 1 -0.03969,-0.26458 c 0,-1.02658 0,-2.05317 0,-3.0771 a 0.31485416,0.31485416 0 0 1 0.08996,-0.2249 q 1.283229,-1.61396 2.5664566,-3.21469 z"
         style="fill:#d40000;stroke-width:0.264583"
         id="path5" />
    </g>
  </g>
</svg>
